<svg aria-hidden="true" style="position: absolute; width: 0; height: 0; overflow: hidden;" version="1.1" xmlns="http://www.w3.org/2000/svg" xmlns:xlink="http://www.w3.org/1999/xlink">
<defs>
<symbol id="icon-figures" viewBox="0 0 32 32">
<path d="M11.333 4c0 0 0 0 0.001 0 4.050 0 7.333 3.283 7.333 7.333 0 0 0 0 0 0.001v-0c0 1.773-0.627 3.399-1.68 4.666h11.013v12h-12v-11.013c-1.25 1.045-2.874 1.68-4.647 1.68-0.007 0-0.014 0-0.021-0h0.001c-4.012-0.050-7.246-3.314-7.246-7.333s3.234-7.284 7.241-7.333l0.005-0z"></path>
</symbol>
<symbol id="icon-draw" viewBox="0 0 33 32">
<path d="M13.285 27.8c2.373-0.933 1.853-3.507 0.653-5.133-1.187-1.667-2.827-2.814-4.48-3.92-1.205-0.767-2.234-1.677-3.103-2.725l-0.017-0.022c-0.373-0.44-1.133-1.253-0.36-1.413 0.787-0.16 2.147 0.613 2.84 0.906 1.213 0.507 2.413 1.094 3.533 1.787l1.347-2.267c-2.080-1.373-4.747-2.586-7.227-2.946-1.413-0.214-2.906 0.080-3.386 1.613-0.427 1.32 0.253 2.653 1.026 3.693 1.827 2.44 4.667 3.614 6.787 5.72 0.453 0.44 1 0.96 1.267 1.574 0.28 0.586 0.213 0.626-0.414 0.626-1.653 0-3.72-1.293-5.066-2.146l-1.347 2.266c2.040 1.254 5.453 3.214 7.947 2.387zM28.071 7c0.294-0.293 0.294-0.773 0-1.053l-1.733-1.734c-0.135-0.13-0.318-0.21-0.52-0.21s-0.385 0.080-0.52 0.21l-1.36 1.36 2.773 2.774 1.36-1.347zM14.951 14.56v2.773h2.774l8.2-8.2-2.774-2.773-8.2 8.2z"></path>
</symbol>
<symbol id="icon-brush" viewBox="0 0 32 32">
<path d="M27.613 6.173l-1.787-1.787c-0.493-0.52-1.36-0.52-1.88 0l-11.946 11.947 3.667 3.667 11.947-11.947c0.519-0.52 0.519-1.387 0-1.88zM9.332 18.666c-2.209 0-4 1.791-4 4v0c0 1.747-1.546 2.667-2.667 2.667 1.226 1.626 3.333 2.666 5.333 2.666 2.945-0 5.333-2.388 5.333-5.334v0c0-2.209-1.791-4-4-4v0z"></path>
</symbol>
<symbol id="icon-twitter" viewBox="0 0 32 32">
<path d="M28.712 8.141c-0.873 0.392-1.885 0.676-2.945 0.801l-0.049 0.005c1.076-0.647 1.884-1.643 2.277-2.83l0.011-0.037c-0.949 0.575-2.055 1.011-3.234 1.246l-0.065 0.011c-0.949-1.013-2.295-1.644-3.788-1.644-0.004 0-0.009 0-0.013 0h0.001c-0 0-0 0-0.001 0-2.871 0-5.199 2.328-5.199 5.199 0 0.001 0 0.003 0 0.004v-0c0 0.402 0.049 0.805 0.129 1.192-4.335-0.227-8.147-2.289-10.702-5.417l-0.021-0.027c-0.444 0.747-0.707 1.647-0.707 2.608 0 0.006 0 0.012 0 0.018v-0.001c0 0.001 0 0.002 0 0.004 0 1.798 0.912 3.384 2.299 4.318l0.019 0.012c-0.869-0.035-1.674-0.276-2.377-0.676l0.026 0.014v0.065c0 0.002 0 0.005 0 0.008 0 2.507 1.774 4.6 4.135 5.091l0.034 0.006c-0.447 0.116-0.907 0.175-1.369 0.177-0.349-0.003-0.689-0.032-1.021-0.084l0.039 0.005c0.687 2.081 2.595 3.564 4.856 3.608l0.005 0c-1.753 1.386-3.996 2.223-6.434 2.223-0.007 0-0.015 0-0.022-0h0.001c-0.436 0-0.838-0.015-1.257-0.064 2.249 1.463 5 2.333 7.954 2.333 0.012 0 0.024 0 0.036-0h-0.002c9.563 0 14.796-7.923 14.796-14.8 0-0.226 0-0.451-0.015-0.677 1.018-0.752 1.882-1.642 2.583-2.653l0.024-0.037z"></path>
</symbol>
<symbol id="icon-facebook" viewBox="0 0 32 32">
<path d="M27.24 3.802h-22.446c-0.539 0-0.975 0.437-0.975 0.975v0 22.446c0 0.539 0.436 0.975 0.975 0.975h22.446c0.539 0 0.975-0.437 0.975-0.975v0-22.446c0-0.539-0.437-0.975-0.975-0.975v0zM24.421 10.923h-1.948c-1.528 0-1.824 0.725-1.824 1.793v2.351h3.647l-0.475 3.681h-3.172v9.451h-3.803v-9.448h-3.181v-3.684h3.181v-2.714c0-3.15 1.925-4.867 4.736-4.867 1.348 0 2.504 0.101 2.842 0.146v3.291h-0.003z"></path>
</symbol>
<symbol id="icon-linkedin" viewBox="0 0 32 32">
<path d="M27.227 3.802h-22.446c-0.539 0-0.975 0.437-0.975 0.975v0 22.446c0 0.539 0.436 0.975 0.975 0.975h22.446c0.539 0 0.975-0.437 0.975-0.975v0-22.446c0-0.539-0.437-0.975-0.975-0.975v0zM11.043 24.59h-3.619v-11.643h3.619v11.643zM9.235 11.356c-0 0-0.001 0-0.002 0-1.159 0-2.099-0.94-2.099-2.099s0.94-2.099 2.099-2.099c1.159 0 2.099 0.94 2.099 2.099v0c-0.002 1.158-0.94 2.096-2.097 2.098h-0zM24.595 24.59h-3.616v-5.662c0-1.352-0.024-3.086-1.882-3.086-1.882 0-2.171 1.47-2.171 2.988v5.761h-3.614v-11.643h3.47v1.592h0.049c0.482-0.915 1.662-1.882 3.425-1.882 3.666 0 4.34 2.412 4.34 5.547v6.386z"></path>
</symbol>
<symbol id="icon-mail" viewBox="0 0 39 32">
<path d="M35.914 1.259h-33.913c-0.001 0-0.002 0-0.003 0-0.719 0-1.302 0.583-1.302 1.302 0 0.001 0 0.001 0 0.001v-0 26.087c0 0.722 0.583 1.305 1.305 1.305h33.913c0 0 0.001 0 0.001 0 0.719 0 1.302-0.583 1.302-1.302 0-0.001 0-0.002 0-0.003v0-26.087c0-0 0-0.001 0-0.001 0-0.719-0.583-1.302-1.302-1.302-0.001 0-0.002 0-0.003 0h0zM34.282 5.774v21.245h-30.652v-21.245l-1.124-0.877 1.601-2.059 1.745 1.358h26.212l1.746-1.357 1.601 2.058-1.128 0.877zM32.064 4.192l-13.109 10.19-14.851-11.544-1.601 2.059 15.048 11.701c0.382 0.299 0.87 0.48 1.4 0.48s1.018-0.181 1.405-0.484l-0.005 0.004 15.057-11.698-1.601-2.059-1.741 1.354z"></path>
</symbol>
<symbol id="icon-phone" viewBox="0 0 20 32">
<path d="M15.124 1.075h-10.667c-0.001 0-0.003 0-0.005 0-2.207 0-3.995 1.789-3.995 3.995 0 0.001 0 0.003 0 0.004v-0 21.333c0 0.001 0 0.003 0 0.005 0 2.207 1.789 3.995 3.995 3.995 0.002 0 0.003 0 0.005 0h10.667c0.001 0 0.003 0 0.005 0 2.207 0 3.995-1.789 3.995-3.995 0-0.002 0-0.003 0-0.005v0-21.332c0-0.001 0-0.003 0-0.005 0-2.207-1.789-3.995-3.995-3.995-0.002 0-0.003 0-0.005 0h0zM12.457 27.741h-5.333v-1.333h5.333v1.333zM16.791 23.741h-14v-18.666h14v18.666z"></path>
</symbol>
<symbol id="icon-location" viewBox="0 0 25 32">
<path d="M12.607 19.281c3.39-0.003 6.138-2.751 6.142-6.141v-0c-0.003-3.391-2.752-6.139-6.143-6.142h-0c-3.39 0.004-6.138 2.752-6.141 6.142v0c0.004 3.39 2.751 6.137 6.141 6.141h0zM12.607 10.069c1.695 0.002 3.069 1.376 3.071 3.071v0c-0.002 1.695-1.376 3.068-3.071 3.070h-0c-1.695-0.002-3.068-1.375-3.070-3.070v-0c0.002-1.695 1.374-3.068 3.069-3.071h0z"></path>
<path d="M11.392 31.279c0.247 0.178 0.556 0.285 0.891 0.285s0.643-0.107 0.895-0.289l-0.005 0.003c0.466-0.33 11.437-8.251 11.392-18.139 0-6.772-5.51-12.282-12.282-12.282s-12.283 5.51-12.283 12.275c-0.045 9.895 10.926 17.816 11.392 18.146zM12.283 3.927c5.081 0 9.212 4.132 9.212 9.22 0.032 6.814-6.737 12.933-9.212 14.939-2.473-2.007-9.244-8.128-9.212-14.946 0-5.081 4.131-9.212 9.212-9.212z"></path>
</symbol>
</defs>
</svg>
